<svg xmlns="http://www.w3.org/2000/svg" viewBox="0 0 289.79 247.87"><defs><style>.cls-1{fill:#a32035;}.cls-2{fill:#004987;}.cls-3{fill:#00a0df;}.cls-4{fill:#ffa400;}.cls-5{fill:#e08433;}.cls-6{fill:#db0032;}</style></defs><title>icon_color</title><g id="Layer_2" data-name="Layer 2"><g id="Layer_1-2" data-name="Layer 1"><polygon class="cls-1" points="144.9 140.91 72.45 87.41 72.45 0 144.9 53.49 144.9 140.91"/><polygon class="cls-2" points="144.88 247.87 0.02 140.91 0.02 54.67 144.88 161.63 144.88 247.87"/><polygon class="cls-3" points="144.91 247.87 289.77 140.91 289.77 54.67 144.91 161.63 144.91 247.87"/><polygon class="cls-4" points="144.9 140.91 217.34 87.41 217.34 0 144.9 53.49 144.9 140.91"/><polygon class="cls-5" points="289.79 140.91 217.34 87.41 217.34 0 289.79 53.49 289.79 140.91"/><polygon class="cls-6" points="0 140.91 72.45 87.41 72.45 0 0 53.49 0 140.91"/></g></g></svg>