<svg xmlns="http://www.w3.org/2000/svg" viewBox="0 0 293.19 247.12"><defs><style>.cls-1{fill:#6f7880;}</style></defs><title>icon_gray</title><g id="Layer_2" data-name="Layer 2"><g id="Layer_1-2" data-name="Layer 1"><polygon class="cls-1" points="144.03 137.22 75.84 86.85 75.84 0 144.03 50.38 144.03 137.22"/><polygon class="cls-1" points="144.07 247.12 1.92 142.16 61.01 98.53 144.03 159.84 144.07 247.12"/><polygon class="cls-1" points="149.12 247.12 291.15 142.25 232.06 98.62 149.12 159.86 149.12 247.12"/><polygon class="cls-1" points="149.12 137.22 217.35 86.85 217.35 0 149.12 50.38 149.12 137.22"/><polygon class="cls-1" points="293.19 137.43 222.4 85.05 222.44 0 293.19 52.31 293.19 137.43"/><polygon class="cls-1" points="0 137.25 70.75 84.92 70.75 0 0 52.31 0 137.25"/></g></g></svg>